<svg width="800" height="600" xmlns="http://www.w3.org/2000/svg">
 <!-- Created with Method Draw - http://github.com/duopixel/Method-Draw/ -->

 <g>
  <title>background</title>
  <rect fill="none" id="canvas_background" height="602" width="802" y="-1" x="-1"/>
 </g>
 <g>
  <title>Layer 1</title>
  <path d="m135.5,90.45313c2,0 3.4588,0.69344 4,2c0.38269,0.92388 0.09789,2.82443 2,4c0.85065,0.52573 1.33749,3.31001 3,6c0.7435,1.203 1.13065,3.12872 2,6c1.04483,3.45084 1.51945,6.03873 2,9c0.50655,3.12144 1,6 1,10c0,3 0,8 0,12c0,3 0,7 0,9c0,3 0,6 0,9c0,3 -1.33749,6.31001 -3,9c-0.7435,1.203 -2.41885,2.41885 -4,4c-1.58115,1.58115 -3.05664,4.91753 -6,7c-4.0817,2.88786 -6,5 -8,6c-2,1 -4.54916,1.95517 -8,3c-0.95709,0.28978 -4.0535,0.5405 -6,1c-2.17625,0.51375 -4.87868,-1.12132 -7,1c-0.70711,0.70711 -1.87856,1.49345 -5,2c-0.98709,0.16019 -5,0 -8,0c-2,0 -4,0 -5,0c-3,0 -4,0 -6,1l-1,0l-1,0" id="svg_12" fill-opacity="null" stroke-opacity="null" stroke-dasharray="5,2,2,2,2,2" stroke-width="16.5" stroke="#000" fill="none"/>
  <path d="m152.5,137.45313c2,1 3.02675,0.77025 4,1c2.17625,0.51375 3.08025,1.31075 6,2c2.17625,0.51375 4.54915,2.95517 8,4c0.95709,0.28978 3.07613,-0.38269 4,0c1.30656,0.5412 3,1 5,1c2,0 3,0 4,0c1,0 3,0 5,0c1,0 3,1 4,1c1,0 2,0 3,0c2,0 4.07613,-0.61731 5,-1c1.30656,-0.5412 1.19028,-1.88152 3,-5c3.36703,-5.80199 5.44841,-8.80565 7,-13c1.4305,-3.867 3.49623,-7.90778 4,-12c0.36655,-2.97752 1,-6 1,-10c0,-2 0,-5 0,-7c0,-3 0,-6 0,-7c0,-1 0,-2 0,-3c0,-1 1,-3 0,-3c-2,0 -0.2565,2.797 -1,4c-1.66251,2.68999 -1.95517,4.54916 -3,8c-0.57957,1.91418 -0.78986,4.07844 -2,7c-0.85571,2.06586 -1.51126,5.02997 -2,9c-0.50377,4.09222 -2.49623,8.90778 -3,13c-0.24437,1.98502 -1.49756,7.9258 -2,13c-0.39415,3.98053 0,7 0,10c0,3 -0.48055,6.03874 0,9c0.50655,3.12144 2,5 3,8c1,3 1.03552,5.50424 4,10c1.55702,2.36128 1.29289,4.29289 2,5c0.70711,0.70711 1.94623,0.05682 3,1c4.77115,4.27039 12,7 19,10c7,3 12.90779,5.49623 17,6c1.98502,0.24437 4,1 7,1c3,0 6,0 9,0c1,0 2,0 3,0c1,0 2,0 4,0l2,0l2,0l2,0" id="svg_13" fill-opacity="null" stroke-opacity="null" stroke-dasharray="5,2,2,2,2,2" stroke-width="16.5" stroke="#000" fill="none"/>
  <path d="m323.5,64.45313c0,1 -0.48627,1.82375 -1,4c-0.4595,1.9465 0,7 0,11c0,5 0,10 0,16c0,5 0,11 0,17c0,5 0,10 0,17c0,5 0,10 0,14c0,6 0,12 0,19c0,8 -0.88135,13.02521 -2,18c-0.90457,4.02266 -1.7326,8.06363 -4,17c-1.79044,7.0565 -5.03552,15.50424 -8,20c-3.11404,4.72258 -6.21167,6.71413 -9,9c-2.18735,1.7932 -5.25101,4.47141 -12,8c-8.36029,4.37102 -14.16135,7.56938 -28,13c-7.08943,2.78206 -15.16824,5.58481 -23,9c-6.149,2.6814 -13.0451,4.84842 -20,7c-6.04204,1.86917 -13,4 -18,6l-3,0l-1,0l-2,0" id="svg_14" fill-opacity="null" stroke-opacity="null" stroke-dasharray="5,2,2,2,2,2" stroke-width="16.5" stroke="#000" fill="none"/>
  <path d="m311.5,111.45313c0,1 0.30511,5.27832 3,11c4.01981,8.53471 9.73953,16.62778 15,28c5.8476,12.64143 11.11984,26.95454 16,40c4.10104,10.96272 9.38998,19.86592 13,31c2.24536,6.9252 4.69446,14.08264 7,22c1.76828,6.07233 2.57971,12.15688 5,18c1.71143,4.13171 4.9176,7.38687 6,10c0.38269,0.92389 0.5528,2.10556 1,3c2.23605,4.47214 9.57004,7.54147 17,13c7.60278,5.58548 13,9 18,12c5,3 11.53186,7.10626 27,13c9.7561,3.71732 19,5 21,5c1,0 1,-1 -1,-1l-1,-1" id="svg_15" fill-opacity="null" stroke-opacity="null" stroke-dasharray="5,2,2,2,2,2" stroke-width="16.5" stroke="#000" fill="none"/>
  <path d="m301.5,220.45313c3,3 6.54599,8.01021 19,13c12.62579,5.05862 25,9 32,11l5,1l2,0l3,1" id="svg_16" fill-opacity="null" stroke-opacity="null" stroke-dasharray="5,2,2,2,2,2" stroke-width="16.5" stroke="#000" fill="none"/>
  <path d="m440.5,92.45313c0,1 0,6 0,13c0,10 0.82016,29.07245 -1,45c-1.38126,12.08685 -5.17505,21.96288 -7,31c-2.2131,10.95912 -3.22525,23.16945 -6,34c-2.35446,9.19002 -4.36078,16.21512 -7,23c-1.62125,4.16792 -4.76859,10.6129 -7,16c-1.57785,3.80927 -2.73145,9.0769 -4,13c-1.65686,5.12396 -2,10 -4,14c-3,6 -6.68564,12.22192 -11,18c-4.67282,6.25818 -14.35483,15.74182 -20,20c-8.21951,6.19998 -19.09317,10.79663 -28,15c-8.08878,3.81729 -15.8851,7.26926 -25,11c-7.90729,3.23645 -12,6 -15,8l1,0l2,-1l3,-1" id="svg_17" fill-opacity="null" stroke-opacity="null" stroke-dasharray="5,2,2,2,2,2" stroke-width="16.5" stroke="#000" fill="none"/>
  <path d="m354.5,136.45313c1,0 2.56287,1.63034 7,9c5.76688,9.57826 9.90039,25.56233 19,42c8.06076,14.56105 15.45428,25.45235 23,34c5.61557,6.36124 12.86829,12.28859 17,14c5.84314,2.4203 11,2 19,2c8,0 19.93365,3.36646 30,5c7.95816,1.29143 17,3 23,4c12,2 22,3 32,3l2,0" id="svg_18" fill-opacity="null" stroke-opacity="null" stroke-dasharray="5,2,2,2,2,2" stroke-width="16.5" stroke="#000" fill="none"/>
  <path d="m480.5,140.45313c0,4 -0.32681,10.03809 1,20c2.40918,18.08856 4.40219,32.10614 7,45c2.44302,12.12566 7.39825,22.0874 9,31c1.45862,8.11618 5.74796,19.09494 10,30c4.7226,12.11188 11.62781,26.20737 19,39c7.62158,13.2254 18.1731,29.9007 25,42c6.15735,10.91269 12.45428,20.45236 20,29c3.74371,4.24081 7,7 8,8l1,0l0,-1l0,-1" id="svg_19" fill-opacity="null" stroke-opacity="null" stroke-dasharray="5,2,2,2,2,2" stroke-width="16.5" stroke="#000" fill="none"/>
  <path d="m478.5,171.45313c-1,4 -3.85114,7.48531 -6,12c-1.772,3.7229 -3.18835,8.94366 -4,12c-1.30875,4.92821 -2.49622,8.90779 -3,13c-0.48874,3.97003 -1.5405,6.0535 -2,8c-0.51373,2.17625 -0.69254,3.186 -2,5c-0.8269,1.14726 -1.69254,2.186 -3,4c-0.8269,1.14726 -1.85272,3.1731 -3,4c-1.814,1.30745 -4,3 -8,5c-6,3 -10,6 -16,8l-4,3l-4,2l-2,1" id="svg_20" fill-opacity="null" stroke-opacity="null" stroke-dasharray="5,2,2,2,2,2" stroke-width="16.5" stroke="#000" fill="none"/>
  <path d="m434.5,185.45313c0,1 0.36755,3.10263 1,5c1.58115,4.74342 6.47141,11.25099 10,18c4.371,8.36028 7.85272,11.1731 9,12c1.814,1.30745 2.69345,2.4588 4,3c1.84775,0.76537 3,1 5,2l0,1" id="svg_21" fill-opacity="null" stroke-opacity="null" stroke-dasharray="5,2,2,2,2,2" stroke-width="16.5" stroke="#000" fill="none"/>
  <path d="m627.5,96.45313c0,2 -2.47345,6.87002 -5,17c-3.7019,14.84238 -5.92432,33.82866 -9,53c-2.8689,17.8821 -2,30 -2,43c0,11 1,29 1,40c0,15 0.19324,30.03381 -2,42c-1.8385,10.03094 -6.17041,18.92618 -10,28c-4.18787,9.92279 -10.31952,19.65088 -18,27c-13.87921,13.28036 -26.7746,19.37842 -40,27c-12.7926,7.37216 -27.33649,12.16962 -43,19c-14.34766,6.25656 -27,12 -37,14l-3,2l-1,0" id="svg_22" fill-opacity="null" stroke-opacity="null" stroke-dasharray="5,2,2,2,2,2" stroke-width="16.5" stroke="#000" fill="none"/>
  <path d="m591.5,135.45313c0,6 1.55194,16.89301 4,31c2.58734,14.90991 6.82288,29.06989 14,47c6.83209,17.06818 18.55029,45.19568 27,64c10.44971,23.25519 22.64038,40.21674 33,57c10.63562,17.23032 21.81366,33.14203 31,45c7.84283,10.12375 15.367,17.65814 20,23c3.276,3.77728 6,8 8,10l1,0l0,-1" id="svg_23" fill-opacity="null" stroke-opacity="null" stroke-dasharray="5,2,2,2,2,2" stroke-width="16.5" stroke="#000" fill="none"/>
  <path d="m661.5,292.45313c-2,2 -4.24988,4.15897 -13,9c-12.1875,6.74277 -27.55469,11.89194 -45,15c-14.80023,2.63681 -26,1 -32,1l-1,0" id="svg_24" fill-opacity="null" stroke-opacity="null" stroke-dasharray="5,2,2,2,2,2" stroke-width="16.5" stroke="#000" fill="none"/>
 </g>
</svg>