<svg width="800" height="600" xmlns="http://www.w3.org/2000/svg">
 <!-- Created with Method Draw - http://github.com/duopixel/Method-Draw/ -->
 <defs>
  <filter id="svg_1_blur">
   <feGaussianBlur stdDeviation="1.5" in="SourceGraphic"/>
  </filter>
 </defs>
 <g>
  <title>background</title>
  <rect fill="#bf0000" id="canvas_background" height="602" width="802" y="-1" x="-1"/>
  <g display="none" overflow="visible" y="0" x="0" height="100%" width="100%" id="canvasGrid">
   <rect fill="url(#gridpattern)" stroke-width="0" y="0" x="0" height="100%" width="100%"/>
  </g>
 </g>
 <g>
  <title>Layer 1</title>
  <path filter="url(#svg_1_blur)" opacity="0.35" transform="rotate(18 757.6892700195312,43.89469814300537)" stroke="#000" stroke-dasharray="5,2,2,2,2,2" d="m709.16357,46.69468c0,-0.98215 0,-1.47322 0,-2.45537c0,-1.96429 -0.16338,-4.91674 0,-8.83932c0.18493,-4.44006 0.81598,-7.82943 1.47717,-11.29469c0.83734,-4.38841 0.8808,-6.56664 1.84646,-8.34825c0.91611,-1.69018 2.86718,-3.30331 5.90869,-4.41966c3.97999,-1.46081 8.0821,-2.45393 12.92525,-2.94644c3.31396,-0.337 8.18702,-0.38046 12.18666,0.98215c5.65635,1.92702 8.98208,3.67951 12.55596,6.87503c4.59685,4.1102 9.16243,11.08366 12.18666,19.15186c2.87706,7.67559 4.67039,16.19591 4.43151,23.57152c-0.209,6.45308 -3.10565,12.24728 -7.01656,15.71435c-5.64909,5.00798 -11.44808,4.91073 -15.87959,4.91073c-4.43151,0 -8.26929,-0.9548 -10.70949,-2.45537c-2.41707,-1.48635 -4.21736,-4.76416 -6.27798,-8.83932c-1.20153,-2.37621 -2.10403,-6.32772 -2.58505,-11.29469c-0.80325,-8.29418 -0.86086,-16.22965 1.47717,-21.60723c2.22574,-5.11931 8.0836,-7.40511 14.77171,-7.3661c9.29846,0.05423 20.13492,3.23903 30.6513,8.83932c9.05082,4.81984 16.61818,11.29469 22.52686,16.6965l5.90869,4.41966l0.73859,0.98215" id="svg_1" stroke-width="25.5" fill="none"/>
  <path d="m234.5,272.45313c2,-1 2.40784,-5.00925 2,-14c-0.50052,-11.03401 -3.30447,-21.92146 -6,-33c-3.38492,-13.91194 -4.24831,-26.08699 -3,-35c1.00977,-7.20975 2.80632,-15.06602 12,-19c5.5923,-2.39294 11.23853,-3.52589 16,-2c8.19196,2.62523 18.66455,13.68422 31,31c14.03345,19.69931 20.36774,42.94255 23,61c2.3259,15.95587 6.07278,29.43192 -3,40c-5.25165,6.11719 -15.35617,6.72104 -29,3c-17.73697,-4.83734 -32.66122,-15.51019 -46,-24c-11.71992,-7.45944 -19.87856,-12.49347 -23,-13c-0.98709,-0.16019 -2.10129,2.69156 2,8c6.49908,8.41202 22.58684,18.00317 41,25c21.58124,8.20065 45.85394,13.49683 69,15c20.95584,1.36093 46.09192,4.30548 68,-9c11.49902,-6.98373 14,-18 17,-23l0,-2l0,-1" id="svg_5" fill-opacity="null" stroke-opacity="null" stroke-dasharray="5,2,2,2,2,2" stroke-width="16.5" stroke="#000" fill="none"/>
  <path d="m180.5,122.45313c-1,-2 -1.68924,-4.53493 0,-6c2.38896,-2.07193 14.90144,-5.88889 38,-8c37.89465,-3.46342 92,-2 171,-2c47,0 78.12473,1.15776 102,-2c11.0838,-1.46595 14.29291,-2.70711 15,-2c1.41422,1.41422 -0.7225,7.07587 1,20c2.82419,21.19019 6.43781,44.65224 14,69c6.77679,21.81914 15.38818,34.77711 21,45c2.15204,3.9203 2,6 2,8c0,3 0.7627,10.05042 3,20c6.33191,28.1586 17.8858,54.02689 25,84c6.88953,29.02646 12.66693,55.83627 18,79c3.43207,14.90707 6.49872,27.94672 7,35c0.14178,1.99496 0.06586,3.14429 -2,4c-2.92157,1.21014 -14.14551,3.31107 -38,0c-41.37653,-5.74316 -101.60089,-21.9606 -165,-29c-46.80801,-5.19724 -88.14587,-0.56866 -125,-4c-25.20895,-2.34711 -53.96881,-9.49957 -66,-10c-6.99396,-0.29092 -12,0 -16,0c-3,0 -5.54915,1.95517 -9,3c-3.82837,1.15915 -8.37201,2.3851 -12,5c-3.4418,2.48071 -7.186,5.69254 -9,7c-2.29454,1.65381 -3,3 -3,2c0,-16 -9.73279,-61.74313 -35,-135c-27.55373,-79.88612 -77.6368,-183.44257 -87,-219c-2.05302,-7.79648 0,-10 -1,-10c-1,0 3.07038,2.86503 7,5c17.33047,9.41567 55.34658,27.281 125,46c76.36626,20.52304 163.16211,34.14691 239,49c53.12027,10.40376 80,15 86,15l1,0" id="svg_6" fill-opacity="null" stroke-opacity="null" stroke-dasharray="5,2,2,2,2,2" stroke-width="16.5" stroke="#000" fill="none"/>
  <path d="m346.5,166.45313c0,1 2.58514,5.42285 11,31c7.4285,22.57913 15.84955,51.04865 24,76c6.87338,21.04178 16.72961,36.22885 21,41c0.94318,1.05377 4.16959,0.30856 6,-9c2.90054,-14.75082 -0.69736,-27.09634 1,-42c1.5097,-13.25597 5,-17 7,-19c1,-1 2.22836,-2.14806 5,-1c10.45251,4.32957 23.44855,22.67322 35,39c12.49481,17.66013 14.07611,23.38269 15,23c3.91968,-1.6236 8.40875,-14.87573 14,-34c7.55585,-25.84393 9.15121,-50.29501 13,-60c0.82431,-2.07858 3.78784,-3.70773 10,4c10.44409,12.95845 22.41852,33.39067 34,50c8.57953,12.30414 13.17871,20.7995 16,21c4.98743,0.35443 10,-8 27,-16l15,-5l14,-4l6,-1" id="svg_7" fill-opacity="null" stroke-opacity="null" stroke-dasharray="5,2,2,2,2,2" stroke-width="16.5" stroke="#000" fill="none"/>
  <path d="m108.5,146.45313c0,-1 2.12141,-1.08788 13,-3c19.35025,-3.40117 53.99405,-10.49998 117,-11c89.99716,-0.71422 174.30795,5.33435 255,-2c95.7821,-8.70594 130.8739,-21.39244 149,-27c6.9549,-2.1516 8.29871,-3.05146 10,-2c7.60846,4.70229 11.82507,23.60647 22,46c17.43805,38.37856 43.50885,116.00943 64,163c12.51312,28.69531 22.83997,44.27188 28,60c3.17902,9.68988 3,14 3,18c0,3 -1,5 -2,6c-1,1 -3.76953,2.39099 -6,6c-1.66254,2.69 -3.74677,5.37134 -8,8c-5.70636,3.5267 -15.96539,6.25946 -30,8c-18.95972,2.35132 -44,2 -73,2c-31,0 -92.09467,1.45386 -134,9c-31.07547,5.59595 -55,11 -75,15c-15,3 -27,4 -40,4c-15,0 -34.06433,1.64264 -55,0c-19.17645,-1.50461 -52.06561,-8.66907 -68,-12c-13.05939,-2.72995 -24.15688,-4.57971 -30,-7c-2.06586,-0.85571 -2.88152,-1.19028 -6,-3c-1.93399,-1.12234 -7.33464,-7.53281 -12,-23c-7.0795,-23.47086 -19.49895,-92.91574 -21,-133c-0.8981,-23.98318 -2,-43 -5,-51l0,-3l0,-1" id="svg_8" fill-opacity="null" stroke-opacity="null" stroke-dasharray="5,2,2,2,2,2" stroke-width="16.5" stroke="#000" fill="none"/>
 </g>
</svg>