<svg width="800" height="600" xmlns="http://www.w3.org/2000/svg">
 <!-- Created with Method Draw - http://github.com/duopixel/Method-Draw/ -->

 <g>
  <title>Layer 1</title>
  <path stroke="#000" id="svg_27" d="m291.54761,379.55151l-185.30772,0c-9.29908,0 -16.84616,7.20246 -16.84616,16.07692l0,176.84615c0,8.87446 7.54708,16.07692 16.84616,16.07692l185.30772,0c9.29908,0 16.84616,-7.20246 16.84616,-16.07692l0,-176.84615c0,-8.87446 -7.54708,-16.07692 -16.84616,-16.07692zm-135.03037,190.15785l-33.69231,0l0,-112.53846l33.69231,0l0,112.53846zm-16.84616,-124.59615c-11.64912,0 -21.0577,-8.99504 -21.0577,-20.09615s9.40858,-20.09615 21.0577,-20.09615s21.0577,8.99504 21.0577,20.09615s-9.40858,20.09615 -21.0577,20.09615zm134.76925,124.59615l-33.69231,0l0,-68.32692c0,-3.21538 -3.3945,-8.48058 -5.78665,-9.75065c-3.15865,-1.69612 -10.6215,-1.84081 -14.02443,-0.27331l-13.88123,6.3745l0,71.97638l-33.69231,0l0,-112.53846l33.69231,0l0,4.93562c13.33373,-5.81181 31.83924,-5.24108 44.38962,1.47908c13.32531,7.12208 22.995,23.02215 22.995,37.79685l0,68.32692z" fill-opacity="null" stroke-opacity="null" stroke-dasharray="5,2,2,2,2,2" stroke-width="16.5" fill="none"/>
  <path stroke="#000" id="svg_32" d="m416.13845,555.27649c13.3367,-14.84731 34.07585,-16.54043 39.06276,-37.67363c3.90875,-11.49474 40.75735,-26.91146 18.94858,-6.27998c-16.84023,12.43236 -36.84747,58.2888 4.58306,43.80042c31.51103,-9.41285 32.86224,-38.47885 41.30869,-60.23954c27.46728,-15.51103 -7.10146,-48.30798 22.47298,-68.18171c25.10033,-20.7458 7.61953,-59.59961 43.4858,-74.30953c18.00248,-5.94719 25.79479,35.11546 28.82592,5.07544c9.86278,-30.38245 44.69551,14.76919 67.92294,9.98241c18.7432,-1.32624 -31.35253,-11.93217 -7.44658,-14.78632c14.05487,6.26247 27.05902,17.09066 29.28261,-0.83321c16.90717,-8.17303 52.36186,-21.22503 51.44085,-34.20866c-14.68214,-3.7541 -64.2474,7.1086 -55.65794,-7.98484c14.739,-4.5528 17.41641,-16.99816 -0.63595,-8.64568c-35.57617,0.90836 -77.28155,-10.65044 -106.88319,11.45705c-15.44032,7.73279 -30.62178,35.46639 -38.88773,8.51451c-26.64557,-26.15823 -80.41201,-28.37392 -96.83777,-62.24228c-3.97483,-16.38594 12.20768,-25.7346 25.95523,-29.05368c2.6746,-5.38501 7.22761,-28.24774 18.5959,-16.71048c-0.51815,-10.09783 -11.18219,-34.2453 12.43905,-23.55521c2.39585,-21.50774 -20.19321,-42.96539 9.68907,-58.62759c-27.99809,4.22749 -22.47699,-21.75275 -16.37875,-25.87311c-16.59702,-1.91823 -36.07442,-14.07465 -26.92339,-29.13439c-18.02392,26.63327 -18.64889,-32.31109 -33.4879,-6.9043c-27.31127,3.64438 8.48461,-19.86048 -16.63506,-14.61412c-14.34362,0.39948 -11.15796,-12.7921 -24.04345,-2.83596c-17.05373,-7.5738 -4.92663,-0.46304 -14.46169,-14.55933c-9.2563,6.54525 -38.72575,23.68822 -33.43826,1.06656c-26.16446,22.7173 3.24548,1.89949 -18.49617,14.82525c-16.62388,-22.39766 -7.37724,-29.285 -14.08173,-20.25478c11.48197,20.43359 4.43643,16.53839 -6.04352,36.84212c9.486,7.02925 -19.13944,15.86379 3.64761,13.20261c13.4997,11.86093 -18.09871,34.05201 -20.62042,52.71928c7.23797,12.79039 34.79845,27.31088 45.94736,26.85195c-4.07482,-16.46765 34.75882,-16.93136 60.56026,-7.62315c-14.45346,21.52546 -63.99432,21.08907 -76.23737,44.49762c-11.9667,23.01173 -31.36864,49.58562 -56.89458,19.96951c-16.2695,-18.87607 -62.74745,-18.60282 -49.98035,12.05199c6.52659,30.10212 -10.94706,69.83086 22.62816,90.56625c20.25442,31.76761 42.70916,-11.81187 26.7964,-28.29838c4.05473,-4.71132 7.1915,-8.03707 -4.67368,-14.47713c2.44997,-4.83073 -34.14601,-23.00519 -15.70178,-34.15732c20.9773,19.36134 51.67194,41.77218 43.14154,70.55255c-6.92335,19.28633 50.17712,52.35098 45.61104,20.34353c-1.02277,-12.43919 -22.84221,-36.54771 -17.81966,-39.65362c15.93017,24.32874 38.59161,47.70169 72.83534,54.92493c28.48407,1.3739 43.40518,20.04113 29.87864,40.75263c-2.58505,29.34912 16.44868,55.91153 20.83071,84.48703c-8.14566,30.30808 -57.73868,36.43258 -64.47021,67.34914c-11.56684,20.76357 17.36637,17.69505 30.8467,11.88513l-0.00007,0.00002zm70.52548,-90.41879c4.17517,-13.70017 12.76735,35.61371 2.17592,9.4399l-1.58555,-4.62418l-0.59037,-4.81574l0,0.00002z" fill-opacity="null" stroke-opacity="null" stroke-dasharray="2,2" stroke-width="16.5" fill="none"/>
  <path stroke="#000" id="svg_40" d="m659.48324,178.42425c-2.07582,0.16897 -4.19812,0.28578 -6.38087,0.28578l0,0c-1.95243,0 -3.84902,-0.09246 -5.69912,-0.22954l0,0l-16.01951,17.80897l-3.93968,-0.96603c-4.62391,-1.12309 -9.11524,-2.53209 -13.43425,-4.22278l0,0l-3.7442,-1.46529l0.96338,-22.36984c-3.40455,-2.06118 -6.58092,-4.35572 -9.52252,-6.87155l0,0l-25.32784,4.70591l-2.31311,-2.93889c-2.71338,-3.44977 -5.02648,-7.06481 -7.07655,-10.71978l0,0l-1.78026,-3.1924l17.19711,-16.46435c-1.07517,-3.48618 -1.78721,-7.08506 -2.15489,-10.75211l0,0l-22.78905,-10.42201l0.41419,-3.53055c0.48877,-4.22285 1.43348,-8.26438 2.56212,-12.14899l0,0l1.00768,-3.44601l25.41861,-3.04325c1.81273,-3.30899 3.94677,-6.44485 6.35057,-9.39162l0,0l-9.69921,-20.65493l2.92749,-2.47974c3.44164,-2.89841 7.12549,-5.52701 10.96972,-7.93033l0,0l3.33008,-2.07703l21.94198,11.91946c3.69782,-1.47326 7.56535,-2.68496 11.57255,-3.61494l0,0l7.95398,-21.34735l4.1003,-0.26963c2.20844,-0.14085 4.58208,-0.30597 7.16274,-0.30597l0,0c2.57373,0 4.94028,0.16512 7.14882,0.30597l0,0l4.10019,0.26963l8.04004,21.56891c3.85364,0.92974 7.58864,2.11735 11.1677,3.55858l0,0l22.24919,-12.08888l3.34166,2.07726c3.84434,2.39929 7.53496,5.03591 10.96987,7.92228l0,0l2.939,2.47974l-9.99709,21.26693c2.17819,2.73728 4.14216,5.63575 5.82004,8.68307l0,0l26.21219,3.13985l1.01922,3.44578c1.14493,3.88075 2.08512,7.92227 2.56204,12.15319l0,0l0.41432,3.53032l-23.58499,10.78425c-0.35365,3.34541 -0.98197,6.63832 -1.91982,9.84655l0,0l17.76955,16.97985l-1.78713,3.20415c-2.04316,3.66735 -4.34471,7.29432 -7.06971,10.7321l0,0l-2.31309,2.93048l-25.95613,-4.81029c-2.75063,2.37897 -5.72923,4.56892 -8.91277,6.54548l0,0l0.98898,22.80862l-3.75354,1.46936c-4.32375,1.68266 -8.80802,3.09564 -13.43178,4.21877l0,0l-3.95381,0.96611l-16.0544,-17.85328l0,0l0.00001,0.00001zm20.59923,5.71235c1.38469,-0.39866 2.74599,-0.82949 4.09326,-1.28841l0,0l-0.92615,-21.5405l2.92053,-1.62241c4.37485,-2.45541 8.35877,-5.40224 11.89598,-8.74731l0,0l2.35498,-3.23005l24.56001,5.54866c0.73769,-1.06682 1.45203,-2.15769 2.1408,-3.27264l0,0l-16.79908,-16.06591l1.04252,-2.87031c1.48227,-4.1342 2.32472,-8.5664 2.57367,-13.19144l0,0l0.15359,-3.0113l22.31427,-10.20055c-0.23267,-1.23591 -0.50017,-2.46365 -0.8051,-3.69561l0,0l-24.82756,-2.97059l-1.33561,-2.77774c-1.99671,-4.1545 -4.63797,-8.04306 -7.79115,-11.62976l0,0l-2.08508,-2.39119l9.44327,-20.09133c-1.09375,-0.82945 -2.21541,-1.63441 -3.36728,-2.41535l0,0l-21.07858,11.44461l-3.10438,-1.41719c-4.5982,-2.09326 -9.57125,-3.68335 -14.8165,-4.71379l0,0l-3.39283,-0.6722l-7.61182,-20.41754c-0.74009,-0.03209 -1.45912,-0.04835 -2.15956,-0.04835l0,0c-0.71448,0 -1.43349,0.01626 -2.17821,0.04835l0,0l-7.55822,20.28475l-3.4418,0.63604c-5.33604,0.99011 -10.42527,2.60445 -15.16551,4.72588l0,0l-3.09742,1.39276l-20.73655,-11.26333c-1.1449,0.78094 -2.26894,1.5859 -3.35326,2.41535l0,0l9.19183,19.56404l-1.15941,2.39503c75.63269,33.73971 -7.16683,7.83781 -9.26586,12.23769l0,0l-1.32871,2.7897l-24.02942,2.87415c-0.30481,1.23196 -0.57469,2.4597 -0.80042,3.69561l0,0l21.54174,9.85042l1.13259,2.03509c91.22567,41.89929 0.17285,10.6011 1.80174,14.99697l0,0l1.06592,2.89019l-16.2687,15.56684c0.68423,1.119 1.39627,2.20986 2.14102,3.27662l0,0l23.88964,-4.44819l2.37833,2.23013c3.66512,3.4702 7.85152,6.48522 12.46383,8.98922l0,0l2.97637,1.60596l-0.90993,21.21052c1.34972,0.45892 2.71569,0.88975 4.10028,1.2884l0,0l15.12139,-16.81871l3.45333,0.36615c2.60634,0.28587 5.14283,0.47105 7.66776,0.47105l0,0c2.71566,0 5.45457,-0.20522 8.2541,-0.54743l0,0l3.48369,-0.42255l15.23765,16.95149l0,0l0.00001,0.00001zm6.89278,-43.67704l3.3323,4.42789l-21.12514,11.88758l-7.49776,-9.97951l0,0c-2.72743,0.5756 -5.59437,0.91401 -8.57763,0.91401l0,0c-20.64353,0 -37.37051,-14.47186 -37.37051,-32.30899l0,0c0,-17.85312 16.72698,-32.32099 37.37051,-32.32099l0,0c20.62023,0 37.35173,14.46787 37.35173,32.32099l0,0c0,7.33036 -2.84822,14.12145 -7.62334,19.54396l0,0l4.13984,5.51506m-14.21152,1.70263l0.65855,-0.36215l-6.02244,-8.01476l3.49057,-3.01926c4.5635,-3.95706 7.36292,-9.35527 7.36292,-15.36548l0,0c-0.02562,-12.0161 -11.27467,-21.746 -25.15095,-21.77003l0,0c-13.90897,0.02403 -25.14637,9.74178 -25.16965,21.77003l0,0c0.02328,12.00413 11.27231,21.7338 25.16965,21.75805l0,0c3.10421,0 6.09227,-0.55156 8.98479,-1.50961l0,0l4.61224,-1.52971l6.06432,8.04292l0,0z" fill-opacity="null" stroke-opacity="null" stroke-dasharray="2,2" stroke-width="16.5" fill="none"/>
 </g>
</svg>