<svg width="242" height="166" xmlns="http://www.w3.org/2000/svg">
 <defs>
  <linearGradient y2="1.03989" x2="0.48617" y1="0.0543" x1="0.50205" id="paint0_linear">
   <stop stop-opacity="0" stop-color="white"/>
   <stop stop-opacity="0.6" stop-color="#64B5F6" offset="1"/>
  </linearGradient>
  <linearGradient y2="0.87494" x2="0.74289" y1="-0.13582" x1="-0.30295" id="paint1_linear">
   <stop stop-color="#E57373"/>
   <stop stop-color="#AD1457" offset="1"/>
  </linearGradient>
  <linearGradient y2="683.71647" x2="427.21777" y1="551.33197" x1="456.59945" id="paint2_linear">
   <stop stop-color="#E57373"/>
   <stop stop-color="#AD1457" offset="1"/>
  </linearGradient>
  <linearGradient y2="0.86902" x2="0.10512" y1="0.25669" x1="1.14899" id="paint3_linear">
   <stop stop-color="#FFF8E1"/>
   <stop stop-color="#FFCC80" offset="1"/>
  </linearGradient>
  <linearGradient y2="610.27073" x2="390.51739" y1="667.15899" x1="444.5287" id="paint4_linear">
   <stop stop-color="#FFF8E1"/>
   <stop stop-color="#FFCC80" offset="1"/>
  </linearGradient>
  <linearGradient y2="0.61286" x2="-0.0524" y1="0.25664" x1="1.14924" id="paint5_linear">
   <stop stop-color="#FFF8E1"/>
   <stop stop-color="#FFCC80" offset="1"/>
  </linearGradient>
  <linearGradient y2="1.07403" x2="0.13211" y1="-0.00475" x1="0.80908" id="paint6_linear">
   <stop stop-color="#FFB74D"/>
   <stop stop-color="#F4511E" offset="1"/>
  </linearGradient>
  <filter id="svg_12_blur">
   <feGaussianBlur stdDeviation="0.1" in="SourceGraphic"/>
  </filter>
  <filter id="svg_18_blur">
   <feGaussianBlur stdDeviation="0.1" in="SourceGraphic"/>
  </filter>
 </defs>
 <g>
  <title>background</title>
  <rect fill="none" id="canvas_background" height="602" width="802" y="-1" x="-1"/>
 </g>
 <g>
  <title>Layer 1</title>
  <path id="svg_1" fill="url(#paint0_linear)" d="m178.67,100.124c0.008,8.397 -1.804,16.702 -5.321,24.384c-3.516,7.682 -8.659,14.571 -15.098,20.226c-1.792,1.574 -3.675,3.049 -5.641,4.416c-2.523,1.755 -5.179,3.324 -7.945,4.696l-0.029,0c-0.59,0.298 -1.189,0.582 -1.793,0.857c-0.276,0.13 -0.546,0.252 -0.827,0.373c-1.749,0.773 -3.544,1.467 -5.384,2.082c-1.45,0.466 -2.938,0.932 -4.441,1.314c-8.671,2.223 -17.734,2.634 -26.582,1.206c-1.049,-0.167 -2.083,-0.358 -3.113,-0.577l-0.87,-0.191c-2.6258,-0.592 -5.2089,-1.348 -7.7326,-2.264c-1.4661,-0.531 -2.9031,-1.114 -4.3111,-1.747c-0.5462,-0.247 -1.0923,-0.499 -1.6288,-0.76c-0.3673,-0.177 -0.7298,-0.358 -1.0923,-0.54c-9.8339,-4.978 -18.1186,-12.386 -24.0056,-21.464c-5.8871,-9.079 -9.165,-19.503 -9.4981,-30.205c-0.3331,-10.7011 2.2906,-21.2957 7.6024,-30.6984c5.3118,-9.4027 13.1208,-17.2758 22.6274,-22.813c9.5066,-5.5372 20.3697,-8.5395 31.4757,-8.6996c11.106,-0.16 22.057,2.5279 31.731,7.7887c9.674,5.2607 17.724,12.9052 23.325,22.1506c5.601,9.2455 8.552,19.7597 8.551,30.4657z"/>
  <path id="svg_2" fill="url(#paint1_linear)" d="m132.423,104.494c3.992,3.96 15.62,19.37 15.62,19.37l-7.143,10.095l-6.423,-20.055l-2.054,-9.41z"/>
  <path id="svg_3" fill="url(#paint2_linear)" d="m144.636,153.878c-0.59,0.299 -1.189,0.583 -1.793,0.858c-0.276,0.13 -0.546,0.251 -0.827,0.372c-1.749,0.774 -3.544,1.468 -5.384,2.083c-1.45,0.465 -2.938,0.931 -4.441,1.313c-8.671,2.223 -17.734,2.635 -26.582,1.207c-1.049,-0.168 -2.083,-0.359 -3.113,-0.578c-3.7695,2.506 -7.2494,4.626 -9.5547,5.59l0.1885,-1.551l0.7829,-6.489l1.8124,-15.098l7.1819,-6.695l-16.1472,1.207c0,0 1.6964,-22.687 8.3177,-27.355c6.6215,-4.667 13.5665,-8.8508 13.5665,-8.8508c0.829,0.5268 1.741,0.9188 2.702,1.1598c2.296,0.612 4.683,0.847 7.061,0.694c2.832,-0.125 5.664,-2.6644 5.799,-2.7948c0,0 4.447,0.8525 8.217,5.5618c1.88,2.425 3.23,5.192 3.968,8.134c0.928,3.443 2.576,11.483 4.451,21.196c1.228,6.252 2.518,13.184 3.794,20.036z"/>
  <path id="svg_4" fill="url(#paint3_linear)" d="m148.043,123.882l6.892,7.785l24.238,-23.19l0.918,-4.747l4.834,-4.0484l-2.151,6.1724l0,8.041c0,0 -18.695,29.208 -23.847,30.713c-6.026,1.766 -18.017,-10.659 -18.017,-10.659l7.133,-10.067z"/>
  <path id="svg_5" fill="#7E57C2" d="m122.882,134.527l5.621,13.044l7.264,-3.01l-5.326,-12.764l-7.559,2.73z"/>
  <path id="svg_6" fill="url(#paint4_linear)" d="m130.712,142.954c-0.904,0.718 -2.252,0.55 -3.925,0.634c-2.246,0.057 -4.401,0.871 -6.089,2.301c-2.248,1.822 -8.531,6.587 -14.814,10.938c-1.14,0.787 -2.281,1.565 -3.383,2.329c-3.7696,2.507 -7.2494,4.626 -9.5548,5.591c-0.6061,0.29 -1.2606,0.474 -1.9332,0.545c-3.2285,0.079 -3.9197,-6.443 -4.1178,-11.647c-0.0628,-1.728 -0.0773,-3.307 -0.1112,-4.448c-0.1353,-4.566 0,-13.044 0,-13.044l16.147,-1.211l-1.711,10.779l-0.299,1.906l0,0.014l4.833,-1.724l0.15,-0.051l17.157,-6.145l1.184,-1.97l0.754,1.863l0.073,0l7.346,-0.932c0,0 0.126,2.823 -1.706,4.272z"/>
  <path id="svg_7" fill="url(#paint5_linear)" d="m127.005,74.9684c-0.421,-1.1087 -0.783,-1.8634 -0.889,-2.087l0,-0.0559c0,0 -0.373,0.8852 -3.176,0.6709c-2.803,-0.2143 -3.731,-1.556 -3.731,-1.556c0,0 0.88,2.9069 -2.46,4.1507c-3.214,1.2019 -4.48,0.424 -4.567,0.3681c0.169,0.177 2.682,2.7671 1.015,4.8215c-1.726,2.1289 -5.607,1.7096 -5.607,1.7096l0,0.028c0.489,1.0661 1.036,2.1064 1.639,3.1165c0.319,0.5311 0.633,1.0202 0.966,1.4768l0,0.0326c0.856,1.3421 2.012,2.4832 3.384,3.3401c-0.603,3.4091 -2.334,6.5386 -4.935,8.921c0.875,0.4397 1.777,0.8277 2.702,1.1597c1.802,0.657 4.224,1.309 6.384,1.128c2.503,-0.258 4.816,-1.408 6.486,-3.2241l-1.107,-4.0948l-0.995,-3.6895c8.999,-2.2128 6.524,-11.8372 4.891,-16.2162zm-5.394,16.3513l0.16,-0.0373l0.256,-0.0698c-0.373,0.1554 -0.767,0.2589 -1.17,0.3074c0.208,-0.0512 0.421,-0.1071 0.643,-0.1724l0.111,-0.0279z"/>
  <path id="svg_8" fill="url(#paint6_linear)" d="m132.423,72.7044c-3.712,3.2889 -5.317,2.3618 -5.418,2.2733l0,-0.0093c-0.421,-1.1087 -0.783,-1.8634 -0.885,-2.087l-0.024,-0.0559c0,0 -0.377,0.8851 -3.18,0.6708c-2.803,-0.2143 -3.726,-1.5559 -3.726,-1.5559c0,0 0.879,2.9069 -2.46,4.1507c-3.219,1.2019 -4.486,0.4239 -4.568,0.368c0.169,0.1724 2.683,2.7625 1.015,4.8169c-1.725,2.1289 -5.606,1.7143 -5.606,1.7143l0,0.0233c0.488,1.0677 1.035,2.1096 1.638,3.1212c0.322,0.5279 0.645,1.0202 0.967,1.4767l0,0.0326c0,0 -1.324,2.511 -3.688,2.4597c-2.363,-0.0512 -2.416,-2.3292 -2.416,-2.3292c0,0 -1.673,2.9069 -6.8391,0.1071c-5.1665,-2.7997 -1.7206,-6.8573 -1.7206,-6.8573c0,0 -3.6634,-2.7019 -3.6634,-6.7501c0,-4.0482 5.703,-7.1275 5.703,-7.1275c0,0 -2.0396,-4.7004 1.4016,-7.2905c3.4415,-2.5901 8.6125,-0.8339 8.6125,-0.8339c0,0 -0.101,-6.0141 5.167,-5.9162c5.268,0.0978 6.461,3.205 6.461,3.205c0,0 4.737,-3.5311 9.425,-0.205c4.688,3.3262 2.76,9.126 2.76,9.126c0,0 4.915,4.0482 1.044,7.4722z"/>
  <path id="svg_9" fill="black" d="m123.148,94.8601c-2.247,-0.6848 -6.244,-3.2982 -6.244,-3.2982c1.577,0.1606 3.171,0.0789 4.722,-0.2423l0.159,-0.0372l0.31,-0.0886l0.043,0l1.01,3.6663z" opacity="0.15"/>
  <path id="svg_10" fill="black" d="m105.087,120.957l-2.18,13.975l-1.711,10.78l-3.9824,3.191l8.6654,-3.033c0,0 -2.247,-6.186 -0.792,-24.913z" opacity="0.15"/>
  <path id="svg_11" fill="black" d="m102.487,159.133c1.029,0.219 2.063,0.41 3.112,0.578c0.053,-0.955 0.15,-1.92 0.285,-2.884l-3.397,2.306z" opacity="0.15"/>
  <g id="svg_12" filter="url(#svg_12_blur)">
   <path id="svg_13" fill="#56CCF2" d="m81.5402,10.1343l-25.8425,0c-3.5661,0 -6.457,2.7864 -6.457,6.2237l0,24.9089c0,3.4373 2.8909,6.2237 6.457,6.2237l25.8425,0c3.5661,0 6.457,-2.7864 6.457,-6.2237l0,-24.9089c0,-3.4373 -2.8909,-6.2237 -6.457,-6.2237z"/>
  </g>
  <path id="svg_14" fill="white" d="m78.316,27.5068l-3.9286,0l3.0524,-2.9625l-1.3283,-1.2984l-4.3903,4.2609l-1.8842,0l0,-1.8287l4.3902,-4.2608l-1.3377,-1.2893l-3.0525,2.9625l0,-3.8128l-1.8842,0l0,3.8128l-3.0524,-2.9625l-1.3378,1.2893l4.3902,4.2608l0,1.8287l-1.8842,0l-4.3902,-4.2609l-1.3284,1.2984l3.0525,2.9625l-3.9286,0l0,1.8286l3.9286,0l-3.0525,2.9625l1.3284,1.2984l4.3902,-4.2609l1.8842,0l0,1.8287l-4.3902,4.2608l1.3378,1.2893l3.0524,-2.9625l0,3.8128l1.8842,0l0,-3.8128l3.0525,2.9625l1.3377,-1.2893l-4.3902,-4.2608l0,-1.8287l1.8842,0l4.3903,4.2609l1.3283,-1.2984l-3.0524,-2.9625l3.9286,0l0,-1.8286z"/>
  <g id="svg_15">
   <path id="svg_16" fill="#F2C94C" d="m215.189,98.3112l-25.843,0c-3.566,0 -6.457,2.7868 -6.457,6.2238l0,24.909c0,3.437 2.891,6.224 6.457,6.224l25.843,0c3.566,0 6.457,-2.787 6.457,-6.224l0,-24.909c0,-3.437 -2.891,-6.2238 -6.457,-6.2238z"/>
  </g>
  <path id="svg_17" fill="white" d="m211.152,113.855c0,-4.572 -3.768,-8.229 -8.478,-8.229c-4.711,0 -8.479,3.657 -8.479,8.229c0,2.834 1.507,5.395 3.768,6.857l0,2.286c0,1.189 0.754,2.195 1.884,2.56l0,0.183c0,1.555 1.225,2.743 2.827,2.743c1.601,0 2.826,-1.188 2.826,-2.743l0,-0.183c1.13,-0.365 1.884,-1.371 1.884,-2.56l0,-2.286c2.261,-1.462 3.768,-4.023 3.768,-6.857zm-15.073,0c0,-3.566 2.92,-6.4 6.595,-6.4c3.674,0 6.594,2.834 6.594,6.4c0,3.2 -2.449,5.852 -5.652,6.309l0,-2.286l1.601,-1.554c0.377,-0.366 0.377,-0.915 0,-1.28c-0.377,-0.366 -0.942,-0.366 -1.319,0l-1.224,1.188l-1.225,-1.188c-0.377,-0.366 -0.942,-0.366 -1.319,0c-0.377,0.365 -0.377,0.914 0,1.28l1.601,1.554l0,2.286c-3.203,-0.457 -5.652,-3.109 -5.652,-6.309zm6.595,12.801c-0.566,0 -0.943,-0.366 -0.943,-0.915l1.885,0c0,0.549 -0.377,0.915 -0.942,0.915zm2.826,-3.658c0,0.549 -0.377,0.915 -0.942,0.915l-3.769,0c-0.565,0 -0.942,-0.366 -0.942,-0.915l0,-1.371c0.848,0.274 1.79,0.457 2.827,0.457c1.036,0 1.978,-0.183 2.826,-0.457l0,1.371z"/>
  <g id="svg_18" filter="url(#svg_18_blur)">
   <path id="svg_19" fill="#F58A8A" d="m42.7836,98.3112l-25.8425,0c-3.5661,0 -6.457,2.7868 -6.457,6.2238l0,24.909c0,3.437 2.8909,6.224 6.457,6.224l25.8425,0c3.5661,0 6.457,-2.787 6.457,-6.224l0,-24.909c0,-3.437 -2.8909,-6.2238 -6.457,-6.2238z"/>
  </g>
  <path id="svg_20" fill="white" d="m35.9209,113.855l-0.9421,0l0,-1.829c0,-2.523 -2.1103,-4.572 -4.7105,-4.572c-2.6002,0 -4.7105,2.049 -4.7105,4.572l0,1.829l-0.9421,0c-1.0364,0 -1.8843,0.823 -1.8843,1.829l0,9.143c0,1.006 0.8479,1.829 1.8843,1.829l11.3052,0c1.0363,0 1.8842,-0.823 1.8842,-1.829l0,-9.143c0,-1.006 -0.8479,-1.829 -1.8842,-1.829zm-5.6526,8.229c-1.0363,0 -1.8842,-0.823 -1.8842,-1.829c0,-1.006 0.8479,-1.828 1.8842,-1.828c1.0363,0 1.8842,0.822 1.8842,1.828c0,1.006 -0.8479,1.829 -1.8842,1.829zm2.9205,-8.229l-5.841,0l0,-1.829c0,-1.563 1.3095,-2.834 2.9205,-2.834c1.611,0 2.9205,1.271 2.9205,2.834l0,1.829z"/>
  <g id="svg_21">
   <path id="svg_22" fill="#6FCF97" d="m172.794,10.1343l-25.842,0c-3.566,0 -6.457,2.7864 -6.457,6.2237l0,24.9089c0,3.4373 2.891,6.2237 6.457,6.2237l25.842,0c3.566,0 6.457,-2.7864 6.457,-6.2237l0,-24.9089c0,-3.4373 -2.891,-6.2237 -6.457,-6.2237z"/>
  </g>
  <path id="svg_23" fill="white" d="m165.282,23.7548l-15.386,0l0,9.3325l15.386,0l0,-9.3325z"/>
  <path id="svg_24" fill="white" d="m169.429,25.6118l-3.396,1.3853l0,2.8871l3.396,1.3853l1.232,0l0,-5.6577l-1.232,0z"/>
 </g>
</svg>